<svg width="667" height="667" viewBox="0 0 667 667" fill="none" xmlns="http://www.w3.org/2000/svg">
<path d="M473 0H193.667C72.3333 0 0 72.3333 0 193.667V472.667C0 594.333 72.3333 666.667 193.667 666.667H472.667C594 666.667 666.333 594.333 666.333 473V193.667C666.667 72.3333 594.333 0 473 0ZM397.333 471H233.333C219.667 471 208.333 459.667 208.333 446C208.333 432.333 219.667 421 233.333 421H397.333C440 421 475 386.333 475 343.333C475 300.333 440.333 265.667 397.333 265.667H228.333L237 274.333C246.667 284.333 246.667 300 236.667 310C231.667 315 225.333 317.333 219 317.333C212.667 317.333 206.333 315 201.333 310L149 257.333C139.333 247.667 139.333 231.667 149 222L201.333 169.667C211 160 227 160 236.667 169.667C246.333 179.333 246.333 195.333 236.667 205L225.667 216H397.333C467.667 216 525 273.333 525 343.667C525 414 467.667 471 397.333 471Z" fill="#222428"/>
</svg>
