<svg width="366" height="364" viewBox="0 0 366 364" fill="none" xmlns="http://www.w3.org/2000/svg">
<path d="M1.22395 136V0.173117H38.5763C48.3518 0.173117 55.709 2.89994 60.6482 8.3536C65.5874 13.7558 68.0569 21.679 68.0569 32.1233V95.715C68.0569 108.577 65.7932 118.507 61.2656 125.504C56.7895 132.501 48.9177 136 37.6502 136H1.22395ZM28.5437 111.999H33.2513C38.2419 111.999 40.7372 109.581 40.7372 104.744V34.6701C40.7372 30.1425 40.1198 27.2356 38.885 25.9494C37.7017 24.6117 35.2578 23.9428 31.5535 23.9428H28.5437V111.999ZM75.4657 136L88.5853 0.173117H134.658L147.547 136H121.847L119.918 114.082H103.557L101.859 136H75.4657ZM105.487 92.3965H117.834L111.892 23.3254H110.657L105.487 92.3965ZM155.881 136V0.173117H183.818L196.321 65.2311V0.173117H222.56V136H196.012L182.429 68.0866V136H155.881ZM246.253 136V26.2581H230.123V0.173117H289.547V26.2581H273.418V136H246.253ZM291.4 136L304.519 0.173117H350.592L363.48 136H337.781L335.852 114.082H319.491L317.793 136H291.4ZM321.42 92.3965H333.768L327.826 23.3254H326.591L321.42 92.3965ZM0.158309 364V161.705H62.2262C72.5708 161.705 80.3868 164.08 85.6741 168.831C90.9613 173.505 94.4862 180.095 96.2486 188.601C98.0876 197.03 99.0072 206.953 99.0072 218.37C99.0072 229.405 97.5896 238.217 94.7544 244.807C91.9958 251.397 86.7468 255.956 79.0075 258.485C85.3676 259.787 89.8119 262.967 92.3406 268.025C94.9459 273.005 96.2486 279.48 96.2486 287.45V364H56.3642V284.806C56.3642 278.906 55.1382 275.266 52.6861 273.887C50.3107 272.431 46.441 271.703 41.0771 271.703V364H0.158309ZM41.307 236.646H51.077C56.6707 236.646 59.4676 230.554 59.4676 218.37C59.4676 210.478 58.8546 205.305 57.6286 202.853C56.4025 200.401 54.1037 199.175 50.7321 199.175H41.307V236.646ZM110.501 364V161.705H149.581V364H110.501ZM165.673 364V161.705H221.304C235.863 161.705 246.821 165.766 254.177 173.888C261.533 181.934 265.211 193.735 265.211 209.29V304.001C265.211 323.158 261.84 337.947 255.096 348.368C248.43 358.789 236.706 364 219.925 364H165.673ZM206.362 328.253H213.373C220.806 328.253 224.522 324.652 224.522 317.449V213.083C224.522 206.34 223.603 202.01 221.764 200.095C220.001 198.102 216.361 197.106 210.844 197.106H206.362V328.253ZM281.763 364V161.705H362.681V200.784H322.911V240.209H361.072V278.254H322.911V324.575H365.324V364H281.763Z" fill="#222428"/>
</svg>
