<svg width="366" height="355" viewBox="0 0 366 355" fill="none" xmlns="http://www.w3.org/2000/svg">
<path d="M1.72395 136V0.173117H39.0763C48.8518 0.173117 56.209 2.89994 61.1482 8.3536C66.0874 13.7558 68.5569 21.679 68.5569 32.1233V95.715C68.5569 108.577 66.2932 118.507 61.7656 125.504C57.2895 132.501 49.4177 136 38.1502 136H1.72395ZM29.0437 111.999H33.7513C38.7419 111.999 41.2372 109.581 41.2372 104.744V34.6701C41.2372 30.1425 40.6198 27.2356 39.385 25.9494C38.2017 24.6117 35.7578 23.9428 32.0535 23.9428H29.0437V111.999ZM75.9657 136L89.0853 0.173117H135.158L148.047 136H122.347L120.418 114.082H104.057L102.359 136H75.9657ZM105.987 92.3965H118.334L112.392 23.3254H111.157L105.987 92.3965ZM156.381 136V0.173117H184.318L196.821 65.2311V0.173117H223.06V136H196.512L182.929 68.0866V136H156.381ZM246.753 136V26.2581H230.623V0.173117H290.047V26.2581H273.918V136H246.753ZM291.9 136L305.019 0.173117H351.092L363.98 136H338.281L336.352 114.082H319.991L318.293 136H291.9ZM321.92 92.3965H334.268L328.326 23.3254H327.091L321.92 92.3965ZM0.658309 355V152.705H62.7262C73.0708 152.705 80.8868 155.08 86.1741 159.831C91.4613 164.505 94.9862 171.095 96.7486 179.601C98.5876 188.03 99.5072 197.953 99.5072 209.37C99.5072 220.405 98.0896 229.217 95.2544 235.807C92.4958 242.397 87.2468 246.956 79.5075 249.485C85.8676 250.787 90.3119 253.967 92.8406 259.025C95.4459 264.005 96.7486 270.48 96.7486 278.45V355H56.8642V275.806C56.8642 269.906 55.6382 266.266 53.1861 264.887C50.8107 263.431 46.941 262.703 41.5771 262.703V355H0.658309ZM41.807 227.646H51.577C57.1707 227.646 59.9676 221.554 59.9676 209.37C59.9676 201.478 59.3546 196.305 58.1286 193.853C56.9025 191.401 54.6037 190.175 51.2321 190.175H41.807V227.646ZM111.001 355V152.705H150.081V355H111.001ZM166.173 355V152.705H221.804C236.363 152.705 247.321 156.766 254.677 164.888C262.033 172.934 265.711 184.735 265.711 200.29V295.001C265.711 314.158 262.34 328.947 255.596 339.368C248.93 349.789 237.206 355 220.425 355H166.173ZM206.862 319.253H213.873C221.306 319.253 225.022 315.652 225.022 308.449V204.083C225.022 197.34 224.103 193.01 222.264 191.095C220.501 189.102 216.861 188.106 211.344 188.106H206.862V319.253ZM282.263 355V152.705H363.181V191.784H323.411V231.209H361.572V269.254H323.411V315.575H365.824V355H282.263Z" fill="black"/>
</svg>
