<svg width="60" height="57" viewBox="0 0 60 57" fill="none" xmlns="http://www.w3.org/2000/svg">
<path d="M0.721477 22V0.196211H6.71752C8.28673 0.196211 9.46777 0.633939 10.2606 1.50939C11.0535 2.37659 11.4499 3.64848 11.4499 5.32506V15.5332C11.4499 17.5979 11.0865 19.1919 10.3597 20.3152C9.64121 21.4384 8.37758 22 6.56886 22H0.721477ZM5.10701 18.1472H5.86271C6.66384 18.1472 7.0644 17.759 7.0644 16.9827V5.73388C7.0644 5.00709 6.96529 4.54045 6.76707 4.33398C6.57712 4.11924 6.18481 4.01187 5.59016 4.01187H5.10701V18.1472ZM12.6392 22L14.7453 0.196211H22.1412L24.2101 22H20.0847L19.775 18.4817H17.1486L16.8761 22H12.6392ZM17.4584 15.0005H19.4405L18.4866 3.91277H18.2884L17.4584 15.0005ZM25.5481 22V0.196211H30.0327L32.0396 10.6397V0.196211H36.2517V22H31.9901L29.8097 11.0981V22H25.5481ZM40.055 22V4.38353H37.4658V0.196211H47.005V4.38353H44.4158V22H40.055ZM47.3023 22L49.4083 0.196211H56.8043L58.8732 22H54.7478L54.4381 18.4817H51.8117L51.5392 22H47.3023ZM52.1214 15.0005H54.1036L53.1497 3.91277H52.9515L52.1214 15.0005ZM0.550411 57V24.5263H10.5139C12.1745 24.5263 13.4292 24.9076 14.2779 25.6702C15.1267 26.4206 15.6925 27.4784 15.9754 28.8438C16.2706 30.1969 16.4183 31.7898 16.4183 33.6226C16.4183 35.3939 16.1907 36.8085 15.7356 37.8663C15.2927 38.9242 14.4502 39.6561 13.2078 40.062C14.2287 40.2711 14.9422 40.7816 15.3481 41.5934C15.7663 42.393 15.9754 43.4324 15.9754 44.7116V57H9.57294V44.2873C9.57294 43.3401 9.37613 42.7558 8.98251 42.5344C8.60119 42.3007 7.98001 42.1839 7.11896 42.1839V57H0.550411ZM7.15586 36.5563H8.7242C9.62214 36.5563 10.0711 35.5784 10.0711 33.6226C10.0711 32.3556 9.97271 31.5253 9.7759 31.1317C9.57909 30.7381 9.21007 30.5413 8.66884 30.5413H7.15586V36.5563ZM18.2634 57V24.5263H24.5367V57H18.2634ZM27.1198 57V24.5263H36.0501C38.3872 24.5263 40.1462 25.1782 41.3271 26.4821C42.5079 27.7736 43.0984 29.6679 43.0984 32.165V47.3686C43.0984 50.4438 42.5571 52.8178 41.4747 54.4907C40.4045 56.1636 38.5225 57 35.8287 57H27.1198ZM33.6515 51.2617H34.777C35.9701 51.2617 36.5667 50.6836 36.5667 49.5274V32.7739C36.5667 31.6914 36.4191 30.9964 36.1239 30.6889C35.841 30.3691 35.2567 30.2092 34.3711 30.2092H33.6515V51.2617ZM45.7553 57V24.5263H58.7448V30.7996H52.3608V37.1283H58.4865V43.2356H52.3608V50.6713H59.1692V57H45.7553Z" fill="#FEB123"/>
</svg>
