<svg width="667" height="667" viewBox="0 0 667 667" fill="none" xmlns="http://www.w3.org/2000/svg">
<path opacity="0.901307" fill-rule="evenodd" clip-rule="evenodd" d="M48.8157 48.8157C-3.8147e-06 97.631 0 176.198 0 333.333C0 490.467 -3.8147e-06 569.037 48.8157 617.85C97.631 666.667 176.198 666.667 333.333 666.667C490.467 666.667 569.037 666.667 617.85 617.85C666.667 569.037 666.667 490.467 666.667 333.333C666.667 176.198 666.667 97.631 617.85 48.8157C569.037 -3.8147e-06 490.467 0 333.333 0C176.198 0 97.631 -3.8147e-06 48.8157 48.8157ZM333.333 366.667C351.743 366.667 366.667 351.743 366.667 333.333C366.667 314.923 351.743 300 333.333 300C314.923 300 300 314.923 300 333.333C300 351.743 314.923 366.667 333.333 366.667ZM233.333 333.333C233.333 351.743 218.409 366.667 200 366.667C181.591 366.667 166.667 351.743 166.667 333.333C166.667 314.923 181.591 300 200 300C218.409 300 233.333 314.923 233.333 333.333ZM466.667 366.667C485.077 366.667 500 351.743 500 333.333C500 314.923 485.077 300 466.667 300C448.257 300 433.333 314.923 433.333 333.333C433.333 351.743 448.257 366.667 466.667 366.667Z" fill="#222428"/>
</svg>
